<svg width="16" height="16" viewBox="0 0 16 16" fill="none" xmlns="http://www.w3.org/2000/svg">
<path d="M14.8353 14.3636L14.364 14.8349C14.1036 15.0953 13.6815 15.0954 13.4212 14.835L7.99999 9.41384L2.57882 14.835C2.31853 15.0953 1.89639 15.0953 1.63603 14.8349L1.16468 14.3636C0.904319 14.1032 0.904319 13.6811 1.1646 13.4208L6.58578 7.99962L1.16463 2.57847C0.904283 2.31812 0.904297 1.896 1.16465 1.63564L1.63601 1.16428C1.89637 0.903925 2.3185 0.903911 2.57885 1.16426L7.99999 6.58541L13.4212 1.16425C13.6815 0.903898 14.1036 0.903919 14.364 1.16428L14.8353 1.63563C15.0957 1.89599 15.0957 2.31811 14.8354 2.57846L9.41421 7.99962L14.8354 13.4208C15.0957 13.6812 15.0957 14.1032 14.8353 14.3636Z" fill="white"/>
</svg>
