<svg width="46" height="46" viewBox="0 0 46 46" fill="none" xmlns="http://www.w3.org/2000/svg">
<path d="M23.1021 38.3332C31.5705 38.3332 38.4355 31.4682 38.4355 22.9998C38.4355 14.5315 31.5705 7.6665 23.1021 7.6665C14.6338 7.6665 7.7688 14.5315 7.7688 22.9998C7.7688 31.4682 14.6338 38.3332 23.1021 38.3332Z" stroke="white" stroke-width="2" stroke-miterlimit="10" stroke-linejoin="round"/>
<path d="M23.1021 30.0679C31.5705 30.0679 38.4355 26.9034 38.4355 22.9997C38.4355 19.0961 31.5705 15.9316 23.1021 15.9316C14.6338 15.9316 7.7688 19.0961 7.7688 22.9997C7.7688 26.9034 14.6338 30.0679 23.1021 30.0679Z" stroke="white" stroke-width="2" stroke-miterlimit="10" stroke-linejoin="round"/>
<path d="M23.1022 38.3332C27.5474 38.3332 31.1509 31.4682 31.1509 22.9998C31.1509 14.5315 27.5474 7.6665 23.1022 7.6665C18.657 7.6665 15.0535 14.5315 15.0535 22.9998C15.0535 31.4682 18.657 38.3332 23.1022 38.3332Z" stroke="white" stroke-width="2" stroke-miterlimit="10" stroke-linejoin="round"/>
<path d="M23.1021 7.6665V38.3204" stroke="white" stroke-width="2" stroke-miterlimit="10" stroke-linejoin="round"/>
<path d="M38.4227 22.9995H7.7688" stroke="white" stroke-width="2" stroke-miterlimit="10" stroke-linejoin="round"/>
</svg>
